<svg id="svg" version="1.1" xmlns="http://www.w3.org/2000/svg" xmlns:xlink="http://www.w3.org/1999/xlink" width="400" height="312.0331950207469" viewBox="0, 0, 400,312.0331950207469"><g id="svgg"><path id="path0" d="M120.843 93.886 C 120.585 93.973,119.953 94.228,119.438 94.453 C 118.923 94.677,118.071 94.950,117.546 95.061 C 116.977 95.180,115.842 95.996,114.736 97.079 C 110.329 101.398,110.539 99.694,110.539 131.120 C 110.539 161.520,110.446 160.655,114.130 164.647 C 117.530 168.332,117.291 168.306,147.809 168.306 C 177.160 168.307,177.048 168.315,180.243 165.885 C 181.234 165.131,182.045 164.404,182.045 164.270 C 182.045 164.136,182.395 163.648,182.822 163.187 C 183.250 162.726,183.952 161.297,184.384 160.012 L 185.168 157.676 185.170 141.992 C 185.171 132.291,185.293 125.870,185.490 125.161 C 185.793 124.068,188.988 120.843,189.768 120.843 C 189.932 120.843,190.317 120.567,190.622 120.230 C 190.927 119.893,191.686 119.460,192.309 119.267 C 192.933 119.074,193.884 118.718,194.423 118.476 C 196.995 117.322,202.279 117.297,203.114 118.435 C 203.290 118.675,203.962 118.971,204.607 119.091 C 205.252 119.212,206.025 119.568,206.324 119.882 C 206.624 120.196,207.170 120.546,207.538 120.658 C 207.905 120.771,208.900 121.557,209.748 122.405 C 212.313 124.971,212.334 125.132,212.334 142.520 C 212.334 158.430,212.551 161.188,213.904 162.449 C 214.243 162.764,214.520 163.143,214.520 163.291 C 214.520 163.724,216.729 165.808,217.188 165.808 C 217.418 165.808,217.802 166.086,218.040 166.426 C 218.829 167.553,221.711 167.669,248.868 167.669 C 275.731 167.669,278.423 167.562,279.606 166.451 C 279.982 166.097,280.445 165.808,280.634 165.808 C 281.180 165.808,283.528 163.481,283.528 162.940 C 283.528 162.670,283.813 162.257,284.161 162.021 C 285.301 161.248,285.398 158.803,285.400 130.971 C 285.402 103.018,285.312 100.823,284.124 99.992 C 283.797 99.762,283.528 99.422,283.528 99.235 C 283.528 98.771,281.588 96.807,281.126 96.803 C 280.921 96.801,280.548 96.506,280.297 96.148 C 279.100 94.438,277.055 94.318,249.031 94.309 C 216.778 94.299,218.630 94.015,213.703 99.722 C 213.015 100.520,212.334 103.985,212.334 106.691 C 212.334 109.915,210.317 111.360,208.439 109.482 C 208.030 109.073,206.977 108.566,206.100 108.355 C 205.222 108.145,204.319 107.787,204.092 107.560 C 203.078 106.546,193.407 106.409,192.222 107.392 C 191.993 107.582,191.063 107.959,190.156 108.228 C 189.248 108.498,188.133 108.993,187.678 109.330 C 186.069 110.520,185.168 109.363,185.168 106.106 C 185.168 103.102,182.892 97.802,181.324 97.154 C 181.172 97.091,180.605 96.650,180.063 96.175 C 179.522 95.700,178.587 95.162,177.986 94.981 C 177.385 94.800,176.331 94.438,175.644 94.178 C 174.414 93.711,122.173 93.433,120.843 93.886 M189.696 182.871 C 186.914 183.126,184.314 183.546,183.294 183.905 C 182.350 184.237,180.945 184.603,180.172 184.717 C 179.399 184.831,178.197 185.182,177.500 185.495 C 176.803 185.809,175.539 186.234,174.690 186.441 C 173.841 186.648,172.935 186.990,172.678 187.202 C 172.420 187.414,171.647 187.763,170.960 187.978 C 170.273 188.193,169.491 188.561,169.223 188.794 C 168.954 189.028,168.251 189.384,167.661 189.585 C 167.071 189.787,166.264 190.202,165.867 190.508 C 165.469 190.815,164.661 191.225,164.071 191.419 C 163.481 191.614,162.998 191.900,162.998 192.055 C 162.998 192.210,162.430 192.627,161.736 192.981 C 161.042 193.335,160.198 193.900,159.862 194.236 C 159.526 194.573,159.091 194.848,158.896 194.848 C 158.701 194.848,158.224 195.164,157.836 195.550 C 157.448 195.937,156.474 196.745,155.672 197.346 C 152.414 199.788,145.707 206.468,144.764 208.211 C 144.605 208.504,144.112 209.185,143.666 209.724 C 141.836 211.942,140.344 214.076,139.878 215.144 C 139.690 215.574,139.284 216.206,138.974 216.550 C 138.665 216.893,138.312 217.596,138.191 218.111 C 138.070 218.626,137.724 219.329,137.423 219.672 C 137.121 220.016,136.702 220.901,136.491 221.640 C 136.281 222.379,135.906 223.062,135.658 223.157 C 135.407 223.253,135.207 223.735,135.207 224.246 L 135.207 225.162 173.849 224.978 C 252.555 224.605,260.206 224.541,260.493 224.253 C 260.893 223.853,260.159 221.464,259.268 220.267 C 258.872 219.736,258.548 219.079,258.548 218.808 C 258.548 218.537,258.206 217.908,257.788 217.411 C 257.369 216.914,256.932 216.127,256.815 215.662 C 256.698 215.196,256.338 214.674,256.014 214.501 C 255.690 214.327,255.425 213.985,255.425 213.739 C 255.425 213.494,255.023 212.831,254.531 212.267 C 254.039 211.703,253.537 210.925,253.417 210.539 C 253.296 210.152,252.993 209.836,252.743 209.836 C 252.492 209.836,252.166 209.520,252.018 209.133 C 251.500 207.782,242.050 197.970,241.267 197.970 C 241.108 197.970,240.610 197.617,240.161 197.186 C 238.412 195.507,238.057 195.234,236.924 194.702 C 236.280 194.400,235.753 194.029,235.753 193.880 C 235.753 193.730,235.260 193.401,234.656 193.149 C 234.053 192.896,233.481 192.487,233.385 192.238 C 233.290 191.990,232.749 191.700,232.184 191.594 C 231.618 191.488,230.899 191.118,230.587 190.772 C 230.274 190.427,229.407 189.990,228.660 189.802 C 227.913 189.614,227.170 189.213,227.009 188.912 C 226.831 188.580,226.173 188.283,225.337 188.157 C 224.580 188.044,223.725 187.691,223.437 187.374 C 223.119 187.022,222.259 186.715,221.232 186.586 C 220.306 186.471,219.216 186.114,218.809 185.795 C 218.351 185.434,217.084 185.078,215.476 184.858 C 214.049 184.663,212.374 184.231,211.753 183.899 C 211.073 183.534,210.006 183.293,209.060 183.291 C 208.199 183.289,205.246 183.078,202.498 182.823 C 196.736 182.289,196.009 182.292,189.696 182.871 " stroke="none" fill="#e6e7e7" fill-rule="evenodd"></path><path id="path1" d="M134.166 29.997 C 133.720 30.634,133.796 31.850,134.281 31.850 C 134.419 31.850,134.722 31.923,134.954 32.012 C 135.436 32.197,136.078 30.761,135.899 29.899 C 135.744 29.152,134.717 29.210,134.166 29.997 M260.675 29.881 C 260.420 31.174,261.348 33.014,262.175 32.856 C 263.515 32.600,263.160 29.547,261.775 29.412 C 261.025 29.340,260.760 29.452,260.675 29.881 M262.800 36.082 C 262.199 37.648,262.705 39.657,263.700 39.657 C 264.686 39.657,265.263 37.418,264.554 36.342 C 264.133 35.703,263.010 35.536,262.800 36.082 M132.292 36.118 C 131.975 36.435,132.044 38.720,132.371 38.720 C 132.529 38.720,132.878 38.804,133.147 38.908 C 133.829 39.169,134.354 37.732,133.958 36.690 C 133.678 35.954,132.768 35.642,132.292 36.118 M264.557 42.462 C 263.806 44.869,264.163 46.346,265.453 46.163 C 266.431 46.025,266.704 43.290,265.866 42.012 C 265.169 40.949,265.012 41.003,264.557 42.462 M130.585 42.842 C 130.166 43.261,130.094 44.609,130.459 45.185 C 130.844 45.790,132.015 45.521,132.369 44.745 C 133.047 43.257,131.655 41.772,130.585 42.842 M129.024 49.399 C 128.818 49.605,128.649 50.139,128.649 50.585 C 128.649 52.176,130.347 52.800,130.713 51.343 C 131.105 49.782,129.959 48.464,129.024 49.399 M266.179 49.368 C 265.810 49.965,265.947 52.519,266.361 52.776 C 267.400 53.418,267.947 52.743,267.852 50.936 C 267.758 49.157,266.841 48.297,266.179 49.368 M267.778 55.670 C 267.327 58.415,267.557 59.329,268.701 59.329 C 270.149 59.329,270.032 55.443,268.559 54.655 C 268.068 54.392,267.967 54.524,267.778 55.670 M127.296 55.790 C 127.182 55.904,127.088 56.607,127.088 57.351 C 127.088 58.947,128.357 59.376,128.987 57.993 C 129.611 56.624,128.244 54.843,127.296 55.790 M125.396 63.241 C 125.100 64.422,125.430 65.170,126.322 65.341 C 127.171 65.503,127.550 64.764,127.348 63.342 C 127.188 62.210,125.675 62.132,125.396 63.241 M269.354 62.945 C 268.764 64.484,269.285 65.886,270.447 65.886 C 271.334 65.886,271.351 65.855,271.351 64.169 C 271.351 62.387,269.908 61.503,269.354 62.945 M124.258 68.252 C 123.237 69.482,123.572 72.443,124.731 72.443 C 125.696 72.443,125.944 71.675,125.676 69.526 C 125.466 67.847,124.966 67.398,124.258 68.252 M271.080 69.276 C 270.538 71.390,270.847 72.443,272.009 72.443 C 272.883 72.443,272.912 72.394,272.912 70.902 C 272.912 67.720,271.744 66.683,271.080 69.276 M121.187 70.199 C 120.711 71.087,121.730 71.996,122.538 71.405 C 122.845 71.181,123.045 70.725,122.982 70.393 C 122.823 69.564,121.597 69.432,121.187 70.199 M122.583 74.495 C 121.883 75.195,121.898 78.322,122.603 78.592 C 123.899 79.089,124.487 77.345,123.859 74.863 C 123.611 73.886,123.286 73.792,122.583 74.495 M272.642 76.515 C 272.405 77.195,272.411 77.681,272.662 78.232 C 273.324 79.686,274.785 78.876,274.785 77.054 C 274.785 75.422,273.165 75.015,272.642 76.515 M72.339 79.209 C 72.225 79.323,72.131 79.874,72.131 80.433 L 72.131 81.448 96.097 81.467 C 122.390 81.488,122.200 81.499,122.346 80.005 L 122.444 79.001 97.496 79.001 C 83.774 79.001,72.454 79.094,72.339 79.209 M274.363 79.702 C 273.919 81.400,273.039 81.343,299.699 81.343 L 324.278 81.343 324.375 80.172 L 324.472 79.001 299.509 79.001 L 274.546 79.001 274.363 79.702 M72.318 84.810 C 72.020 85.587,72.102 87.730,72.454 88.389 C 73.211 89.803,74.629 88.475,74.629 86.352 C 74.629 84.929,72.753 83.677,72.318 84.810 M322.643 85.087 C 322.256 85.778,322.876 88.681,323.411 88.681 C 323.983 88.681,324.484 87.225,324.371 85.888 C 324.267 84.651,323.172 84.143,322.643 85.087 M74.005 93.365 L 74.005 95.550 74.908 95.550 C 76.160 95.550,76.715 93.368,75.867 91.783 C 75.010 90.181,74.005 91.034,74.005 93.365 M321.178 91.670 C 320.812 92.035,320.737 92.494,320.885 93.465 C 321.193 95.497,321.420 95.755,322.206 94.968 C 323.041 94.133,323.160 91.668,322.379 91.368 C 321.718 91.115,321.737 91.110,321.178 91.670 M217.799 93.832 C 215.811 94.971,212.340 97.969,212.336 98.551 C 212.335 98.742,211.959 99.445,211.500 100.113 C 210.792 101.143,210.648 101.729,210.548 103.981 C 210.352 108.380,209.993 108.682,207.300 106.708 C 206.849 106.378,205.655 106.001,204.645 105.869 C 203.636 105.737,202.269 105.391,201.607 105.100 C 200.463 104.597,198.595 104.654,198.595 105.192 C 198.595 105.315,200.105 105.673,201.952 105.986 C 204.420 106.406,205.948 106.872,207.727 107.749 C 210.604 109.168,210.583 109.184,210.911 105.303 C 211.329 100.350,214.062 96.391,218.579 94.195 L 220.609 93.208 248.868 93.208 L 277.127 93.208 279.215 94.217 C 282.024 95.575,284.504 98.040,285.794 100.755 L 286.807 102.888 286.892 130.432 L 286.976 157.976 286.227 160.121 C 284.826 164.130,282.426 166.630,278.376 168.297 L 276.503 169.068 249.649 169.166 L 222.795 169.264 220.297 168.481 C 216.198 167.197,213.872 165.155,211.914 161.124 L 210.929 159.094 210.834 142.171 L 210.738 125.248 209.089 123.573 C 206.640 121.084,201.729 118.657,199.142 118.657 C 197.233 118.657,199.429 119.694,202.104 120.056 C 202.918 120.166,203.791 120.463,204.045 120.717 C 204.298 120.971,204.989 121.380,205.580 121.627 C 206.171 121.874,207.476 122.871,208.480 123.843 L 210.304 125.610 210.461 143.179 C 210.601 158.925,210.670 160.807,211.132 161.326 C 211.416 161.644,211.859 162.397,212.117 162.998 C 212.533 163.965,213.947 165.596,215.663 167.088 C 215.979 167.363,217.218 168.066,218.417 168.650 L 220.596 169.711 249.018 169.711 C 277.431 169.711,277.440 169.711,278.532 169.049 C 279.133 168.684,279.996 168.299,280.448 168.193 C 281.687 167.902,285.617 163.867,285.995 162.498 C 286.168 161.873,286.561 161.083,286.870 160.742 C 287.402 160.155,287.432 158.606,287.432 131.342 L 287.432 102.563 286.370 100.384 C 285.296 98.179,285.068 97.842,283.777 96.550 C 282.253 95.025,281.775 94.653,280.718 94.165 C 280.117 93.887,279.274 93.455,278.845 93.205 C 278.176 92.814,273.892 92.750,248.868 92.754 L 219.672 92.759 217.799 93.832 M319.237 98.210 C 318.946 98.968,319.441 102.108,319.851 102.103 C 320.980 102.088,321.832 99.208,321.003 98.209 C 320.497 97.599,319.471 97.600,319.237 98.210 M75.629 100.000 C 75.769 102.932,77.735 103.101,77.747 100.182 C 77.754 98.481,77.492 98.048,76.454 98.048 L 75.536 98.048 75.629 100.000 M317.782 104.492 C 317.047 105.227,317.762 108.726,318.622 108.603 C 319.326 108.503,319.857 104.606,319.166 104.606 C 319.000 104.606,318.670 104.531,318.432 104.440 C 318.195 104.349,317.902 104.372,317.782 104.492 M77.179 106.692 C 77.282 108.480,77.299 108.509,78.220 108.509 C 79.147 108.509,79.157 108.492,79.157 106.792 L 79.157 105.074 78.116 104.974 L 77.075 104.875 77.179 106.692 M315.959 111.689 C 315.758 114.312,316.197 115.562,317.190 115.189 C 318.374 114.744,318.095 111.362,316.862 111.220 C 316.216 111.146,315.992 111.262,315.959 111.689 M79.064 113.427 C 79.181 115.882,80.465 116.403,81.006 114.215 C 81.393 112.646,80.867 111.475,79.773 111.475 C 78.987 111.475,78.973 111.515,79.064 113.427 M314.280 118.363 C 313.990 119.276,314.430 122.093,314.861 122.087 C 315.882 122.074,316.598 120.139,316.188 118.503 C 315.935 117.498,314.586 117.399,314.280 118.363 M80.562 119.916 C 80.562 122.767,82.481 123.061,82.689 120.242 C 82.800 118.727,82.365 118.033,81.304 118.033 C 80.605 118.033,80.562 118.141,80.562 119.916 M82.496 124.859 C 81.624 125.411,82.152 128.479,83.138 128.592 C 83.818 128.670,84.060 128.525,84.301 127.890 C 84.980 126.105,83.760 124.057,82.496 124.859 M312.776 124.798 C 312.038 125.537,312.748 128.713,313.624 128.588 C 314.708 128.433,314.808 124.590,313.728 124.590 C 313.319 124.590,312.891 124.684,312.776 124.798 M84.060 133.411 C 84.167 135.656,85.081 136.347,85.814 134.738 C 86.569 133.080,86.044 131.460,84.752 131.460 C 83.987 131.460,83.969 131.511,84.060 133.411 M311.012 132.922 C 311.017 134.686,311.360 135.378,312.088 135.098 C 312.374 134.989,312.520 134.758,312.414 134.585 C 312.307 134.412,312.360 134.270,312.531 134.270 C 313.376 134.270,312.735 131.617,311.866 131.517 C 311.034 131.421,311.007 131.465,311.012 132.922 M85.589 139.657 C 85.646 143.227,86.592 144.531,87.354 142.089 C 88.178 139.445,87.751 137.705,86.276 137.705 C 85.600 137.705,85.560 137.819,85.589 139.657 M309.379 138.407 C 309.148 139.081,309.494 141.764,309.812 141.764 C 310.683 141.764,311.378 140.265,311.116 138.951 C 310.920 137.972,309.663 137.579,309.379 138.407 M87.666 144.490 C 86.906 144.671,86.860 148.155,87.613 148.444 C 88.535 148.798,88.916 148.636,89.291 147.731 C 90.036 145.932,89.137 144.139,87.666 144.490 M307.684 145.359 C 307.487 145.870,307.822 148.634,308.080 148.634 C 308.905 148.634,309.350 147.903,309.401 146.464 C 309.459 144.841,308.195 144.028,307.684 145.359 M88.688 152.459 C 88.702 154.955,89.361 156.726,90.285 156.748 C 90.394 156.750,90.576 156.296,90.690 155.738 C 91.473 151.886,91.322 151.132,89.768 151.132 C 88.696 151.132,88.681 151.150,88.688 152.459 M306.016 152.282 C 306.023 153.576,306.390 154.040,307.022 153.552 C 307.945 152.838,307.855 151.615,306.870 151.502 C 306.112 151.414,306.011 151.506,306.016 152.282 M90.554 159.699 C 90.554 163.126,91.642 164.559,92.378 162.103 C 93.163 159.482,92.789 157.689,91.458 157.689 C 90.555 157.689,90.554 157.691,90.554 159.699 M304.383 158.392 C 304.121 159.154,304.511 161.749,304.887 161.749 C 305.624 161.749,306.011 160.975,306.011 159.500 C 306.011 158.010,304.797 157.183,304.383 158.392 M92.338 164.441 C 91.827 164.951,92.131 168.144,92.763 168.902 C 93.524 169.817,93.823 169.573,94.346 167.611 C 94.955 165.325,93.597 163.181,92.338 164.441 M302.752 165.151 C 302.457 165.629,302.953 168.306,303.337 168.306 C 304.043 168.306,304.450 167.541,304.450 166.214 C 304.450 164.897,303.339 164.202,302.752 165.151 M93.885 171.324 C 93.306 171.903,93.697 174.527,94.505 175.488 L 95.334 176.472 95.749 175.277 C 96.720 172.489,95.439 169.771,93.885 171.324 M301.123 171.910 C 300.817 172.708,301.409 174.707,301.952 174.707 C 302.209 174.707,302.400 174.461,302.377 174.161 C 302.353 173.860,302.437 173.614,302.564 173.614 C 302.691 173.614,302.781 173.158,302.763 172.600 C 302.728 171.441,301.501 170.925,301.123 171.910 M95.550 181.733 L 95.550 185.792 96.451 185.792 C 97.577 185.792,97.726 185.309,97.732 181.634 C 97.737 178.520,97.435 177.674,96.320 177.674 L 95.550 177.674 95.550 181.733 M299.422 178.064 C 299.301 178.366,299.262 184.216,299.377 184.778 C 299.478 185.270,299.744 185.480,300.268 185.480 C 300.824 185.480,301.024 185.300,301.051 184.778 C 301.093 183.953,301.088 178.945,301.045 178.376 C 301.021 178.063,299.537 177.777,299.422 178.064 M201.405 181.133 C 203.037 181.271,205.074 181.524,205.933 181.694 C 206.792 181.865,209.251 182.346,211.397 182.763 C 216.779 183.808,223.114 185.731,225.491 187.040 C 226.116 187.384,226.790 187.666,226.989 187.666 C 228.060 187.666,236.916 193.068,241.062 196.249 C 249.741 202.909,262.737 220.366,262.242 224.700 L 262.139 225.605 230.705 225.761 C 213.416 225.847,199.166 226.023,199.037 226.151 C 198.908 226.280,213.018 226.386,230.393 226.386 C 260.875 226.386,262.003 226.365,262.569 225.800 C 263.249 225.119,262.988 223.558,261.775 221.063 C 261.403 220.298,260.939 219.321,260.742 218.891 C 260.405 218.154,259.485 216.539,258.080 214.220 C 257.736 213.653,257.139 212.836,256.753 212.404 C 256.366 211.972,256.050 211.500,256.050 211.355 C 256.050 211.210,255.383 210.234,254.567 209.185 C 253.751 208.135,252.873 206.975,252.615 206.605 C 252.029 205.765,243.660 197.441,242.435 196.480 C 241.937 196.090,241.038 195.371,240.437 194.883 C 239.836 194.395,239.028 193.897,238.642 193.776 C 238.255 193.655,237.939 193.423,237.939 193.260 C 237.939 193.097,237.447 192.730,236.846 192.443 C 236.245 192.156,235.753 191.805,235.753 191.662 C 235.753 191.520,235.226 191.165,234.582 190.875 C 233.938 190.584,233.130 190.117,232.787 189.837 C 232.443 189.557,231.671 189.139,231.069 188.908 C 230.468 188.678,229.646 188.237,229.242 187.929 C 228.838 187.622,228.040 187.282,227.468 187.175 C 226.897 187.068,226.360 186.800,226.275 186.579 C 226.191 186.359,225.381 186.001,224.477 185.784 C 223.573 185.567,222.403 185.140,221.877 184.834 C 221.351 184.529,220.116 184.133,219.133 183.954 C 218.149 183.776,217.025 183.422,216.635 183.168 C 216.244 182.913,214.747 182.558,213.307 182.379 C 211.867 182.199,210.532 181.925,210.341 181.769 C 209.710 181.256,205.562 180.796,201.970 180.839 L 198.439 180.882 201.405 181.133 M93.970 189.305 C 93.423 190.512,94.018 192.499,94.927 192.503 C 95.861 192.507,96.399 190.793,95.886 189.446 C 95.487 188.396,94.417 188.317,93.970 189.305 M300.997 189.260 C 300.419 190.340,300.895 192.037,301.776 192.037 C 302.552 192.037,302.888 191.518,302.888 190.320 C 302.888 188.600,301.705 187.937,300.997 189.260 M92.750 194.891 C 91.742 196.524,91.958 199.027,93.119 199.161 C 94.362 199.304,94.573 198.127,93.906 194.779 C 93.711 193.799,93.405 193.829,92.750 194.891 M302.661 196.019 C 302.217 197.340,302.610 198.439,303.527 198.439 C 304.533 198.439,304.854 196.228,303.944 195.563 C 303.160 194.989,302.986 195.051,302.661 196.019 M91.101 202.055 C 90.018 202.685,90.337 205.777,91.485 205.777 C 92.603 205.777,92.956 204.865,92.532 203.074 C 92.231 201.802,91.919 201.579,91.101 202.055 M304.311 202.538 C 303.965 203.918,304.392 205.152,305.216 205.152 C 305.873 205.152,306.323 204.257,306.323 202.950 C 306.323 201.786,304.589 201.431,304.311 202.538 M89.700 208.271 C 89.195 208.680,88.950 209.315,88.798 210.607 L 88.589 212.381 89.632 212.279 C 90.941 212.152,91.355 210.967,90.775 209.005 C 90.395 207.716,90.389 207.713,89.700 208.271 M305.883 209.368 C 305.531 210.768,305.976 211.757,306.908 211.649 C 308.209 211.498,308.238 208.587,306.939 208.587 C 306.282 208.587,306.032 208.771,305.883 209.368 M87.259 215.882 C 86.853 217.499,87.213 218.728,88.123 218.833 C 89.127 218.949,89.503 218.015,89.169 216.235 C 88.914 214.877,87.573 214.629,87.259 215.882 M307.572 215.925 C 307.129 217.090,307.675 218.267,308.657 218.267 C 309.395 218.267,309.446 218.167,309.446 216.706 C 309.446 214.870,308.175 214.340,307.572 215.925 M85.780 221.897 C 85.099 222.577,85.557 225.449,86.347 225.449 C 87.344 225.449,87.912 224.165,87.522 222.795 C 87.264 221.891,86.288 221.388,85.780 221.897 M309.212 222.560 C 308.783 223.808,309.303 225.137,310.219 225.137 C 311.005 225.137,311.319 224.613,311.319 223.300 C 311.319 221.638,309.721 221.077,309.212 222.560 M83.997 230.289 C 83.997 232.023,84.009 232.046,84.856 231.949 C 85.665 231.856,85.714 231.760,85.714 230.289 C 85.714 228.818,85.665 228.722,84.856 228.629 C 84.009 228.531,83.997 228.554,83.997 230.289 M310.863 229.454 C 310.632 230.505,311.135 232.006,311.717 232.006 C 312.473 232.006,312.881 231.273,312.881 229.914 C 312.881 228.192,311.223 227.814,310.863 229.454 M82.252 235.909 C 81.921 237.227,82.343 238.251,83.216 238.251 C 84.090 238.251,84.512 237.227,84.181 235.909 C 84.038 235.341,83.776 235.129,83.216 235.129 C 82.657 235.129,82.394 235.341,82.252 235.909 M312.524 235.881 C 311.965 237.109,312.528 238.720,313.517 238.720 C 314.648 238.720,314.714 235.346,313.586 235.186 C 313.086 235.114,312.784 235.312,312.524 235.881 M80.937 242.061 C 80.731 242.267,80.562 243.031,80.562 243.760 C 80.562 245.408,82.018 245.665,82.564 244.113 C 83.110 242.561,81.927 241.071,80.937 242.061 M314.187 242.591 C 313.428 244.771,315.220 247.025,316.026 244.904 C 316.610 243.368,316.280 241.856,315.337 241.747 C 314.665 241.669,314.455 241.824,314.187 242.591 M79.541 247.036 C 78.930 247.378,78.718 251.991,79.313 251.991 C 79.485 251.991,79.590 252.117,79.547 252.272 C 79.504 252.426,79.594 252.555,79.747 252.557 C 80.162 252.564,80.552 253.305,80.557 254.098 C 80.561 254.633,80.744 254.801,81.322 254.801 C 81.919 254.801,82.103 254.985,82.181 255.660 C 82.235 256.132,82.455 256.536,82.670 256.557 C 82.884 256.579,83.271 256.614,83.528 256.635 C 83.786 256.657,83.997 256.939,83.997 257.263 C 83.997 258.133,85.456 258.347,85.675 257.509 C 85.876 256.742,85.673 256.362,85.064 256.362 C 84.805 256.362,84.524 255.955,84.418 255.425 C 84.315 254.910,84.069 254.489,83.871 254.489 C 83.673 254.489,83.142 254.067,82.689 253.552 C 82.237 253.037,81.574 252.615,81.215 252.615 C 80.466 252.615,80.433 252.454,80.905 251.099 C 81.538 249.283,80.587 246.450,79.541 247.036 M315.878 248.543 C 315.576 250.818,315.881 251.735,316.900 251.617 C 317.655 251.530,317.728 251.391,317.815 249.892 C 317.991 246.835,316.264 245.632,315.878 248.543 M314.141 253.842 C 313.964 254.174,313.502 254.490,313.115 254.545 C 312.619 254.615,312.384 254.889,312.316 255.472 C 312.258 255.977,311.985 256.360,311.614 256.457 C 310.793 256.672,310.790 257.923,311.610 257.923 C 311.942 257.923,312.303 257.642,312.412 257.299 C 312.586 256.751,313.124 256.513,313.903 256.640 C 314.036 256.662,314.227 256.264,314.329 255.757 C 314.454 255.128,314.725 254.805,315.180 254.740 C 315.596 254.681,315.885 254.381,315.947 253.942 C 316.078 253.020,314.625 252.939,314.141 253.842 M95.872 268.870 C 96.061 269.223,96.428 269.594,96.688 269.693 C 96.947 269.793,97.286 270.207,97.440 270.612 C 97.594 271.018,97.935 271.351,98.197 271.351 C 98.459 271.351,98.673 271.603,98.673 271.913 C 98.673 272.604,99.258 273.224,99.910 273.224 C 100.179 273.224,100.537 273.540,100.707 273.927 C 100.876 274.313,101.331 274.674,101.717 274.729 C 102.666 274.864,102.765 273.075,101.822 272.828 C 101.492 272.742,101.177 272.341,101.119 271.933 C 101.050 271.440,100.776 271.161,100.295 271.092 C 99.879 271.033,99.455 270.672,99.288 270.234 C 99.092 269.716,98.758 269.477,98.233 269.477 C 97.740 269.477,97.395 269.254,97.268 268.852 C 97.140 268.450,96.795 268.228,96.299 268.228 C 95.618 268.228,95.568 268.303,95.872 268.870 M299.454 269.009 C 299.454 269.438,299.348 269.773,299.219 269.752 C 298.338 269.613,297.631 269.874,297.496 270.387 C 297.410 270.717,297.009 271.032,296.601 271.090 C 296.108 271.160,295.829 271.433,295.761 271.914 C 295.702 272.330,295.340 272.754,294.902 272.921 C 294.115 273.220,294.016 273.460,294.335 274.291 C 294.604 274.993,295.627 274.904,295.864 274.157 C 295.973 273.812,296.475 273.317,296.978 273.056 C 297.547 272.762,297.892 272.337,297.892 271.931 C 297.892 271.431,298.039 271.316,298.517 271.441 C 298.861 271.531,299.063 271.477,298.967 271.321 C 298.871 271.166,298.941 271.038,299.123 271.038 C 299.305 271.038,299.454 270.765,299.454 270.431 C 299.454 270.098,299.699 269.641,300.000 269.417 C 300.774 268.839,300.814 268.228,300.078 268.228 C 299.620 268.228,299.454 268.436,299.454 269.009 M106.070 277.267 C 106.627 277.918,107.104 277.845,107.104 277.109 C 107.104 276.838,106.795 276.659,106.326 276.659 C 105.585 276.659,105.573 276.688,106.070 277.267 M107.161 278.589 C 107.249 279.510,107.375 279.636,108.296 279.725 C 109.298 279.821,109.329 279.790,109.233 278.788 C 109.145 277.867,109.018 277.741,108.097 277.652 C 107.096 277.556,107.064 277.587,107.161 278.589 M287.796 277.804 C 287.134 278.466,287.606 279.781,288.506 279.781 C 289.595 279.781,289.901 279.397,289.641 278.359 C 289.455 277.619,288.322 277.278,287.796 277.804 M112.463 281.305 C 111.562 281.876,112.175 283.053,113.427 283.157 C 114.538 283.249,114.598 283.206,114.598 282.332 C 114.598 281.169,113.506 280.644,112.463 281.305 M282.642 281.305 C 282.413 281.450,282.272 281.905,282.330 282.315 C 282.482 283.386,284.309 283.577,284.633 282.555 C 284.971 281.489,283.656 280.662,282.642 281.305 " stroke="none" fill="#599c9f" fill-rule="evenodd"></path><path id="path2" d="M136.096 29.436 C 135.840 31.504,135.499 32.119,134.638 32.061 C 133.690 31.998,133.263 34.674,133.920 36.559 C 134.411 37.969,133.890 39.105,132.870 38.849 C 131.994 38.629,131.695 41.402,132.396 43.247 C 132.698 44.040,132.129 45.872,131.644 45.667 C 130.256 45.080,129.690 47.126,130.555 49.608 C 131.032 50.975,130.707 52.039,129.757 52.220 C 129.331 52.302,128.931 52.213,128.868 52.023 C 128.804 51.834,128.725 52.507,128.691 53.519 C 128.658 54.531,128.788 55.836,128.980 56.419 C 129.324 57.459,128.764 59.080,128.097 58.977 C 127.052 58.817,126.995 59.003,127.194 61.905 C 127.409 65.044,127.315 65.375,126.171 65.502 C 125.096 65.622,125.106 65.575,125.521 68.498 C 125.981 71.741,125.812 72.443,124.569 72.443 C 123.513 72.443,123.502 72.502,124.010 75.576 C 124.408 77.984,124.091 78.845,122.892 78.615 C 122.328 78.507,122.248 78.648,122.248 79.746 C 122.248 81.538,122.983 81.490,96.366 81.467 C 70.600 81.444,72.042 81.341,72.206 83.204 C 72.267 83.899,72.480 84.174,73.063 84.310 C 74.332 84.606,74.843 85.867,74.387 87.574 C 73.738 90.001,73.864 91.179,74.774 91.179 C 75.237 91.179,75.684 91.441,75.896 91.837 C 76.214 92.431,76.198 93.003,75.771 96.175 C 75.599 97.455,75.890 98.048,76.689 98.048 C 77.581 98.048,77.919 99.049,77.613 100.781 C 77.499 101.425,77.331 102.609,77.238 103.413 L 77.070 104.874 78.113 104.974 L 79.157 105.074 79.157 108.197 C 79.157 111.220,79.180 111.323,79.877 111.421 C 80.967 111.576,81.385 112.780,80.934 114.467 C 80.303 116.826,80.428 118.033,81.304 118.033 C 82.454 118.033,82.840 118.742,82.615 120.445 C 82.014 125.009,82.013 124.979,82.654 124.776 C 84.181 124.291,84.571 125.536,84.136 129.508 L 83.922 131.460 84.747 131.460 C 85.952 131.460,86.416 132.633,85.930 134.451 C 85.316 136.744,85.426 137.705,86.301 137.705 C 87.819 137.705,88.037 139.041,87.242 143.453 C 87.038 144.584,87.069 144.660,87.675 144.502 C 89.300 144.077,90.188 146.191,89.149 148.009 C 88.228 149.620,88.528 151.132,89.768 151.132 C 91.033 151.132,91.387 151.891,91.042 153.865 C 90.391 157.588,90.402 157.689,91.454 157.689 C 92.893 157.689,93.007 158.473,92.254 163.159 C 92.053 164.411,92.054 164.413,93.088 164.408 C 94.461 164.401,94.890 165.469,94.371 167.601 C 93.514 171.123,93.523 171.343,94.528 171.195 C 95.814 171.007,96.284 171.702,96.051 173.451 C 95.947 174.228,95.778 175.496,95.675 176.269 C 95.495 177.618,95.519 177.674,96.289 177.674 C 97.438 177.674,97.737 178.492,97.732 181.634 C 97.726 185.201,97.583 185.682,96.459 185.907 C 95.444 186.110,95.176 187.753,95.900 189.341 C 96.447 190.540,95.879 192.496,94.971 192.542 C 93.853 192.600,93.732 192.978,94.068 195.368 C 94.496 198.418,94.249 199.328,93.038 199.151 C 91.967 198.993,91.785 200.159,92.477 202.746 C 93.003 204.715,92.656 205.777,91.485 205.777 C 90.450 205.777,90.174 207.387,90.865 209.399 C 91.343 210.790,90.852 212.156,89.832 212.277 C 88.735 212.406,88.474 213.448,88.993 215.613 C 89.553 217.949,89.242 218.999,88.042 218.823 C 86.993 218.669,86.724 220.407,87.475 222.486 C 87.982 223.885,87.482 225.262,86.422 225.389 C 85.590 225.488,84.993 228.194,85.656 228.857 C 86.359 229.559,85.734 231.848,84.811 231.953 L 83.908 232.056 84.094 234.697 C 84.310 237.762,84.190 238.251,83.216 238.251 C 82.087 238.251,81.724 240.382,82.493 242.507 C 82.921 243.691,82.413 245.299,81.697 245.024 C 80.659 244.626,80.429 245.300,80.797 247.674 C 80.992 248.932,81.070 250.558,80.972 251.288 C 80.811 252.479,80.858 252.615,81.436 252.615 C 81.796 252.615,82.376 253.029,82.748 253.552 C 83.115 254.067,83.599 254.489,83.823 254.489 C 84.047 254.489,84.312 254.892,84.410 255.385 C 84.515 255.910,84.839 256.346,85.191 256.438 C 85.681 256.566,85.778 256.839,85.718 257.909 C 85.653 259.068,85.715 259.204,86.243 259.066 C 86.760 258.931,86.787 258.979,86.435 259.413 C 86.117 259.806,86.115 259.864,86.425 259.677 C 86.693 259.516,86.924 259.728,87.133 260.326 C 87.303 260.815,87.756 261.353,88.140 261.521 C 88.527 261.691,88.837 262.105,88.837 262.451 C 88.837 262.894,89.077 263.104,89.664 263.171 C 90.181 263.231,90.552 263.503,90.655 263.897 C 90.746 264.244,91.112 264.603,91.468 264.697 C 91.824 264.790,92.116 264.990,92.116 265.142 C 92.116 265.528,93.295 266.667,93.695 266.667 C 93.877 266.667,93.945 266.797,93.846 266.957 C 93.747 267.117,93.812 267.338,93.989 267.447 C 94.166 267.557,94.246 267.753,94.166 267.882 C 94.086 268.012,94.259 268.118,94.551 268.117 C 96.537 268.115,97.080 268.262,97.268 268.852 C 97.395 269.254,97.740 269.477,98.233 269.477 C 98.758 269.477,99.092 269.716,99.288 270.234 C 99.455 270.672,99.879 271.033,100.295 271.092 C 100.776 271.161,101.050 271.440,101.119 271.933 C 101.177 272.339,101.485 272.740,101.804 272.824 C 102.149 272.914,102.424 273.312,102.480 273.802 C 102.548 274.388,102.783 274.659,103.287 274.730 C 103.851 274.810,103.980 275.003,103.911 275.667 C 103.829 276.467,103.888 276.503,105.294 276.503 C 106.300 276.503,106.890 276.668,107.167 277.027 C 107.390 277.315,107.923 277.597,108.353 277.652 C 108.950 277.728,109.157 277.962,109.236 278.646 C 109.300 279.211,109.559 279.598,109.938 279.697 C 110.459 279.833,110.721 280.556,110.569 281.441 C 110.521 281.722,112.172 281.528,112.723 281.187 C 113.450 280.738,114.554 281.318,114.655 282.202 L 114.754 283.060 156.615 283.139 L 198.475 283.218 198.470 282.046 C 198.467 281.402,198.494 268.742,198.530 253.913 L 198.595 226.952 199.281 226.772 C 201.365 226.227,196.030 226.115,166.958 226.095 C 132.668 226.072,133.767 226.128,134.125 224.412 C 134.582 222.223,139.193 213.715,141.601 210.617 C 141.868 210.273,142.812 209.022,143.698 207.835 C 144.584 206.649,147.178 203.839,149.464 201.590 C 154.233 196.897,153.987 197.116,157.069 194.838 C 160.878 192.023,162.345 191.108,166.276 189.092 C 167.135 188.652,168.048 188.163,168.306 188.006 C 170.118 186.903,174.410 185.234,177.986 184.242 C 179.102 183.933,180.437 183.509,180.952 183.301 C 181.468 183.092,183.575 182.654,185.636 182.326 C 187.697 181.998,190.226 181.592,191.257 181.425 C 192.287 181.257,195.519 181.012,198.439 180.880 C 202.068 180.716,203.006 180.611,201.406 180.547 C 200.118 180.495,198.960 180.350,198.834 180.224 C 198.708 180.097,198.598 166.587,198.590 150.200 L 198.576 120.407 199.227 120.058 C 199.866 119.717,199.862 119.703,199.046 119.331 C 197.918 118.817,193.357 119.706,191.840 120.735 C 191.246 121.138,190.662 121.470,190.540 121.473 C 190.419 121.476,189.407 122.301,188.290 123.308 L 186.261 125.138 186.105 142.585 L 185.948 160.031 184.952 161.905 C 183.243 165.116,180.861 167.272,177.518 168.635 L 175.644 169.399 147.697 169.397 L 119.750 169.395 118.033 168.608 C 114.857 167.150,110.851 163.444,110.851 161.963 C 110.851 161.826,110.535 161.055,110.148 160.248 L 109.446 158.782 109.446 130.991 C 109.446 103.280,109.448 103.197,110.111 101.795 C 110.477 101.023,110.868 100.088,110.981 99.719 C 111.386 98.389,115.082 95.005,117.305 93.929 L 119.438 92.896 147.860 92.896 L 176.282 92.896 178.380 93.929 C 183.031 96.219,186.105 100.652,186.105 105.069 C 186.105 108.548,186.614 108.783,190.168 106.946 C 190.724 106.658,192.799 106.143,194.779 105.800 C 196.759 105.458,198.744 105.032,199.190 104.855 L 200.000 104.531 199.219 104.256 L 198.439 103.981 198.522 68.066 C 198.595 36.366,198.549 32.043,198.128 31.229 C 197.621 30.248,197.620 29.652,198.126 29.277 C 198.298 29.150,184.422 29.047,167.291 29.049 C 142.864 29.051,136.133 29.135,136.096 29.436 M235.386 92.662 C 242.999 92.708,255.364 92.708,262.865 92.662 C 270.366 92.615,264.137 92.577,249.024 92.577 C 233.911 92.577,227.774 92.615,235.386 92.662 M210.293 141.764 C 210.293 150.437,210.333 153.985,210.382 149.649 C 210.431 145.312,210.431 138.216,210.382 133.880 C 210.333 129.543,210.293 133.091,210.293 141.764 " stroke="none" fill="#04aac2" fill-rule="evenodd"></path><path id="path3" d="M198.126 29.279 C 197.620 29.651,197.621 30.248,198.128 31.229 C 198.549 32.043,198.595 36.366,198.522 68.065 L 198.439 103.978 201.405 104.892 C 203.037 105.394,204.868 105.888,205.475 105.988 C 206.082 106.088,206.925 106.415,207.349 106.715 C 208.247 107.350,210.138 108.057,210.171 107.770 C 210.184 107.661,210.260 106.314,210.341 104.776 C 210.423 103.214,210.683 101.629,210.931 101.185 C 211.175 100.748,211.602 99.911,211.880 99.325 C 212.531 97.952,215.672 94.810,217.046 94.159 C 217.632 93.881,218.532 93.413,219.048 93.119 C 220.475 92.303,277.234 92.294,278.689 93.109 C 279.204 93.398,280.117 93.861,280.718 94.139 C 281.764 94.621,282.165 94.938,283.777 96.550 C 285.451 98.224,285.711 98.573,286.060 99.611 C 286.262 100.211,286.653 100.963,286.929 101.282 C 287.383 101.805,287.432 104.670,287.432 130.946 L 287.432 160.031 286.489 161.749 C 284.561 165.259,282.165 167.712,280.078 168.311 C 279.615 168.443,278.838 168.813,278.352 169.132 C 276.868 170.103,220.814 170.025,219.204 169.049 C 218.603 168.684,217.745 168.300,217.298 168.196 C 216.210 167.940,212.449 164.140,211.968 162.810 C 211.757 162.226,211.486 161.749,211.365 161.749 C 210.472 161.749,210.331 159.395,210.219 142.587 L 210.105 125.455 208.210 123.640 C 207.168 122.642,205.948 121.735,205.499 121.624 C 205.051 121.512,204.403 121.167,204.059 120.855 C 203.221 120.095,200.122 119.579,199.238 120.053 L 198.576 120.407 198.590 150.170 C 198.598 166.540,198.681 180.058,198.774 180.209 C 198.867 180.360,199.814 180.490,200.877 180.498 C 203.669 180.517,210.068 181.281,210.533 181.649 C 210.751 181.822,212.027 182.123,213.368 182.318 C 214.710 182.512,216.396 182.937,217.115 183.261 C 217.835 183.584,219.055 183.950,219.828 184.073 C 220.601 184.196,221.655 184.551,222.170 184.862 C 222.685 185.173,223.653 185.529,224.321 185.653 C 224.988 185.777,225.788 186.132,226.099 186.442 C 226.409 186.753,227.182 187.104,227.816 187.223 C 228.450 187.342,229.202 187.672,229.486 187.956 C 229.771 188.241,230.489 188.666,231.083 188.901 C 231.677 189.136,232.443 189.557,232.787 189.837 C 233.130 190.117,233.938 190.584,234.582 190.875 C 235.226 191.165,235.753 191.532,235.753 191.690 C 235.753 191.847,236.140 192.132,236.612 192.323 C 238.167 192.951,241.912 195.850,245.807 199.439 C 246.031 199.645,246.383 199.996,246.589 200.219 C 246.796 200.442,247.147 200.793,247.370 201.000 C 247.593 201.206,247.947 201.558,248.157 201.781 C 248.367 202.003,248.679 202.326,248.850 202.498 C 250.527 204.178,252.519 206.344,252.771 206.761 C 252.943 207.045,253.821 208.234,254.723 209.404 C 255.625 210.575,256.362 211.679,256.362 211.858 C 256.362 212.037,256.643 212.359,256.987 212.574 C 257.330 212.788,257.611 213.163,257.611 213.406 C 257.611 213.649,257.946 214.246,258.356 214.733 C 258.766 215.220,259.330 216.109,259.611 216.708 C 259.891 217.308,260.348 218.220,260.625 218.735 C 262.788 222.746,263.471 225.064,262.808 226.146 C 262.784 226.186,248.473 226.292,231.007 226.381 C 210.225 226.486,199.141 226.651,198.935 226.858 C 198.727 227.065,198.606 236.745,198.582 255.117 L 198.545 283.060 240.515 283.139 L 282.484 283.218 282.353 282.325 C 282.189 281.207,282.888 280.871,284.310 281.386 C 285.617 281.858,286.339 281.568,286.339 280.572 C 286.339 279.998,286.505 279.781,286.944 279.781 C 287.398 279.781,287.573 279.529,287.646 278.767 C 287.741 277.778,289.461 276.945,289.461 277.887 C 289.461 278.070,289.883 278.220,290.398 278.220 C 291.182 278.220,291.335 278.096,291.335 277.461 C 291.335 276.912,291.529 276.675,292.037 276.603 C 292.541 276.531,292.768 276.259,292.839 275.644 C 292.917 274.968,293.100 274.785,293.704 274.785 C 294.363 274.785,294.442 274.678,294.275 274.009 C 294.116 273.377,294.226 273.178,294.869 272.933 C 295.337 272.755,295.700 272.340,295.761 271.914 C 295.829 271.433,296.108 271.160,296.601 271.090 C 297.009 271.032,297.410 270.717,297.496 270.387 C 297.631 269.874,298.338 269.613,299.219 269.752 C 299.348 269.773,299.454 269.438,299.454 269.009 C 299.454 268.436,299.620 268.228,300.078 268.228 C 300.782 268.228,300.782 268.814,300.078 269.388 C 299.683 269.710,299.744 269.771,300.468 269.779 C 301.179 269.788,301.327 269.654,301.327 269.009 C 301.327 268.384,301.483 268.228,302.108 268.228 C 302.732 268.228,302.888 268.072,302.888 267.447 C 302.888 266.823,303.044 266.667,303.669 266.667 C 304.328 266.667,304.450 266.521,304.450 265.730 C 304.450 264.897,304.554 264.793,305.386 264.793 C 306.177 264.793,306.323 264.672,306.323 264.012 C 306.323 263.388,306.479 263.232,307.104 263.232 C 307.728 263.232,307.884 263.076,307.884 262.451 C 307.884 261.827,308.041 261.671,308.665 261.671 C 309.324 261.671,309.446 261.525,309.446 260.734 C 309.446 259.901,309.550 259.797,310.383 259.797 C 311.174 259.797,311.319 259.676,311.319 259.016 C 311.319 258.392,311.475 258.236,312.100 258.236 C 312.748 258.236,312.877 258.090,312.859 257.377 C 312.839 256.534,312.832 256.531,312.499 257.221 C 312.062 258.128,311.007 258.163,311.007 257.270 C 311.007 256.885,311.257 256.551,311.614 256.457 C 311.985 256.360,312.258 255.977,312.316 255.472 C 312.384 254.889,312.619 254.615,313.115 254.545 C 313.502 254.490,313.964 254.174,314.141 253.842 C 314.550 253.079,315.905 253.040,316.100 253.786 C 316.179 254.087,316.259 253.815,316.279 253.182 C 316.299 252.549,316.168 251.644,315.988 251.171 C 315.513 249.920,315.928 247.002,316.586 246.970 C 316.909 246.954,316.953 246.888,316.706 246.788 C 316.491 246.701,316.306 246.115,316.296 245.485 C 316.278 244.485,316.240 244.429,315.993 245.043 C 315.238 246.922,313.420 244.646,314.147 242.732 C 314.824 240.954,314.524 238.694,313.614 238.707 C 312.526 238.724,311.998 237.368,312.525 235.913 C 313.178 234.106,313.002 231.301,312.264 231.762 C 311.158 232.452,310.093 229.405,311.170 228.634 C 311.348 228.506,311.400 227.570,311.295 226.386 C 311.196 225.269,311.091 224.532,311.061 224.746 C 311.031 224.961,310.669 225.137,310.257 225.137 C 309.383 225.137,308.759 223.808,309.157 222.795 C 309.807 221.138,309.491 218.267,308.657 218.267 C 307.667 218.267,307.130 217.089,307.580 215.905 C 307.747 215.464,307.884 214.294,307.884 213.305 L 307.884 211.506 306.979 211.638 C 305.906 211.796,305.434 210.572,305.998 209.089 C 306.177 208.619,306.304 207.225,306.281 205.991 C 306.257 204.757,306.177 204.063,306.103 204.450 C 305.930 205.349,304.596 205.433,304.367 204.559 C 304.282 204.233,304.284 202.715,304.371 201.187 L 304.529 198.408 303.649 198.423 C 302.642 198.441,302.176 197.406,302.627 196.155 C 302.901 195.396,302.955 190.971,302.682 191.647 C 302.595 191.862,302.191 192.037,301.784 192.037 C 300.905 192.037,300.416 190.347,300.986 189.281 C 301.174 188.930,301.308 187.616,301.285 186.359 C 301.261 185.103,301.181 184.391,301.107 184.778 C 301.013 185.266,300.750 185.480,300.246 185.480 C 299.334 185.480,299.219 184.961,299.279 181.109 C 299.325 178.154,299.328 178.142,300.144 178.046 C 300.722 177.978,301.005 178.115,301.108 178.514 C 301.189 178.825,301.271 178.201,301.291 177.127 C 301.318 175.653,301.437 175.176,301.777 175.176 C 302.025 175.176,302.313 175.037,302.418 174.867 C 302.527 174.691,302.403 174.637,302.128 174.743 C 301.550 174.964,300.938 173.588,301.078 172.384 C 301.154 171.731,301.334 171.587,302.061 171.599 L 302.952 171.614 302.842 168.321 L 302.732 165.027 303.615 164.926 L 304.498 164.825 304.445 161.804 C 304.376 157.822,304.340 158.002,305.211 158.002 C 305.862 158.002,305.991 158.173,306.096 159.173 C 306.163 159.817,306.242 159.107,306.271 157.596 C 306.318 155.102,306.395 154.783,307.104 154.126 C 307.548 153.714,307.871 153.081,307.853 152.657 C 307.825 151.986,307.802 151.974,307.619 152.537 C 306.933 154.649,306.365 154.701,306.094 152.677 L 305.917 151.360 306.935 151.509 L 307.953 151.658 307.841 148.351 L 307.728 145.043 308.571 144.946 C 309.527 144.835,309.786 143.421,309.411 140.359 C 309.173 138.414,309.317 138.017,310.260 138.017 C 310.811 138.017,311.021 138.202,311.061 138.720 C 311.091 139.106,311.198 138.509,311.299 137.393 C 311.400 136.276,311.376 135.126,311.245 134.837 C 310.543 133.287,310.963 131.382,311.974 131.531 L 312.941 131.673 312.833 128.210 L 312.724 124.746 313.629 124.643 L 314.533 124.540 314.340 121.602 C 314.234 119.986,314.228 118.451,314.328 118.192 C 314.546 117.623,315.887 117.562,316.109 118.111 C 316.363 118.741,316.301 115.517,316.027 113.846 C 315.664 111.641,315.879 111.074,317.014 111.241 L 317.937 111.376 317.829 107.913 L 317.721 104.450 318.626 104.547 L 319.532 104.644 319.319 101.340 C 319.086 97.747,319.353 97.143,320.777 98.032 C 321.414 98.430,321.443 95.075,320.823 92.865 C 320.585 92.018,321.476 91.090,322.281 91.345 C 322.956 91.560,323.150 88.552,322.588 86.592 C 322.228 85.336,322.782 84.443,323.763 84.700 C 324.391 84.864,324.434 84.762,324.434 83.109 L 324.434 81.343 299.777 81.343 C 272.575 81.343,273.729 81.427,274.460 79.503 C 274.874 78.415,274.866 77.737,274.448 78.454 C 273.624 79.869,271.991 78.260,272.607 76.640 C 273.332 74.733,273.001 72.443,272.000 72.443 C 270.587 72.443,270.431 68.648,271.804 67.686 C 272.018 67.536,271.996 67.455,271.741 67.452 C 271.526 67.449,271.351 67.096,271.351 66.667 C 271.351 66.009,271.204 65.886,270.420 65.886 C 269.355 65.886,268.927 64.940,269.322 63.460 C 269.447 62.991,269.594 61.624,269.648 60.422 C 269.702 59.219,269.674 58.490,269.585 58.800 C 269.472 59.197,269.180 59.336,268.603 59.269 C 267.694 59.162,267.188 57.798,267.634 56.659 C 268.172 55.282,267.962 52.686,267.326 52.853 C 266.008 53.197,265.809 52.366,266.216 48.201 L 266.433 45.973 265.580 46.136 C 264.170 46.406,263.742 44.810,264.581 42.404 C 264.802 41.768,264.919 40.714,264.841 40.062 C 264.762 39.409,264.638 39.052,264.564 39.266 C 264.364 39.845,263.018 39.739,262.783 39.125 C 262.671 38.833,262.676 37.267,262.795 35.645 L 263.012 32.696 262.206 32.850 C 261.492 32.987,261.354 32.859,260.983 31.725 C 260.431 30.038,260.589 29.418,261.612 29.262 C 262.073 29.191,248.048 29.114,230.445 29.091 C 212.842 29.068,198.298 29.153,198.126 29.279 M124.356 67.654 C 124.141 67.741,123.966 67.958,123.966 68.136 C 123.966 68.349,124.110 68.341,124.385 68.113 C 124.615 67.921,124.882 67.843,124.978 67.939 C 125.074 68.035,125.245 67.964,125.358 67.780 C 125.569 67.439,125.051 67.374,124.356 67.654 M83.797 131.460 C 83.797 133.091,83.850 133.759,83.914 132.943 C 83.978 132.127,83.978 130.792,83.914 129.977 C 83.850 129.161,83.797 129.828,83.797 131.460 M92.584 168.982 C 93.185 169.971,93.989 170.372,93.989 169.683 C 93.989 169.421,93.845 169.295,93.668 169.404 C 93.492 169.513,93.062 169.276,92.713 168.876 L 92.078 168.150 92.584 168.982 M301.100 181.421 C 301.100 182.194,301.161 182.510,301.235 182.123 C 301.310 181.737,301.310 181.105,301.235 180.718 C 301.161 180.332,301.100 180.648,301.100 181.421 M94.926 188.134 C 94.607 188.518,94.629 188.603,95.044 188.603 C 95.322 188.603,95.550 188.392,95.550 188.134 C 95.550 187.877,95.497 187.666,95.432 187.666 C 95.368 187.666,95.140 187.877,94.926 188.134 M93.677 191.900 C 93.677 192.511,93.794 192.939,93.937 192.850 C 94.183 192.698,94.054 190.788,93.798 190.788 C 93.731 190.788,93.677 191.289,93.677 191.900 M92.549 194.701 C 92.264 195.136,92.088 195.549,92.157 195.618 C 92.227 195.687,92.520 195.332,92.809 194.828 C 93.454 193.705,93.263 193.612,92.549 194.701 M83.790 232.943 C 83.790 234.231,83.845 234.758,83.912 234.114 C 83.979 233.470,83.979 232.416,83.912 231.772 C 83.845 231.128,83.790 231.655,83.790 232.943 M79.001 252.240 C 79.001 252.564,79.677 253.240,80.000 253.240 C 80.137 253.240,80.250 253.099,80.250 252.927 C 80.250 252.756,80.074 252.650,79.859 252.693 C 79.645 252.736,79.504 252.596,79.547 252.381 C 79.590 252.166,79.485 251.991,79.313 251.991 C 79.141 251.991,79.001 252.103,79.001 252.240 M87.124 261.124 C 87.121 261.491,87.350 261.662,87.822 261.646 C 88.291 261.629,88.369 261.562,88.056 261.443 C 87.799 261.345,87.485 261.110,87.358 260.921 C 87.217 260.709,87.127 260.787,87.124 261.124 M92.116 266.172 C 92.116 266.444,92.338 266.667,92.610 266.667 C 92.882 266.667,93.049 266.500,92.981 266.296 C 92.788 265.717,92.116 265.621,92.116 266.172 M93.677 267.612 C 93.677 267.883,94.889 268.369,95.083 268.175 C 95.143 268.115,94.852 267.904,94.435 267.708 C 94.018 267.511,93.677 267.468,93.677 267.612 M95.550 269.113 C 95.550 269.529,95.746 269.789,96.057 269.789 C 96.491 269.789,96.503 269.711,96.145 269.243 C 95.915 268.942,95.687 268.638,95.639 268.566 C 95.590 268.495,95.550 268.741,95.550 269.113 M97.195 270.726 C 97.249 271.308,97.467 271.525,98.048 271.579 C 98.708 271.641,98.736 271.613,98.228 271.400 C 97.897 271.261,97.513 270.877,97.375 270.547 C 97.161 270.038,97.134 270.066,97.195 270.726 M298.361 271.352 C 297.822 271.585,297.854 271.615,298.595 271.574 C 299.067 271.548,299.454 271.417,299.454 271.282 C 299.454 270.983,299.174 271.001,298.361 271.352 M105.628 277.596 C 105.569 278.382,106.938 278.477,107.234 277.708 C 107.398 277.281,107.352 277.260,106.959 277.587 C 106.573 277.907,106.451 277.886,106.293 277.475 C 106.027 276.781,105.685 276.843,105.628 277.596 " stroke="none" fill="#0494a4" fill-rule="evenodd"></path><path id="path4" d="M119.906 93.022 C 116.880 93.634,111.636 97.569,110.981 99.719 C 110.868 100.088,110.477 101.023,110.111 101.795 C 109.448 103.197,109.446 103.280,109.446 130.991 L 109.446 158.782 110.148 160.248 C 110.535 161.055,110.851 161.826,110.851 161.963 C 110.851 163.444,114.857 167.150,118.033 168.608 L 119.750 169.395 147.697 169.397 L 175.644 169.399 177.518 168.635 C 180.861 167.272,183.243 165.116,184.952 161.905 L 185.948 160.031 186.105 142.585 L 186.261 125.138 188.290 123.308 C 189.407 122.301,190.419 121.476,190.540 121.473 C 190.662 121.470,191.239 121.143,191.823 120.747 C 196.591 117.511,204.378 118.786,209.089 123.573 L 210.738 125.248 210.834 142.171 L 210.929 159.094 211.914 161.124 C 213.872 165.155,216.198 167.197,220.297 168.481 L 222.795 169.264 249.649 169.166 L 276.503 169.068 278.376 168.297 C 282.426 166.630,284.826 164.130,286.227 160.121 L 286.976 157.976 286.892 130.432 L 286.807 102.888 285.794 100.755 C 284.504 98.040,282.024 95.575,279.215 94.217 L 277.127 93.208 248.868 93.208 L 220.609 93.208 218.579 94.195 C 214.062 96.391,211.329 100.350,210.911 105.303 C 210.583 109.184,210.605 109.167,207.727 107.755 C 202.539 105.209,194.262 104.828,190.165 106.947 C 186.615 108.783,186.105 108.547,186.105 105.069 C 186.105 100.741,183.150 96.393,178.540 93.939 L 176.581 92.896 148.790 92.848 C 133.505 92.822,120.507 92.900,119.906 93.022 M175.644 94.178 C 176.331 94.438,177.385 94.800,177.986 94.981 C 178.587 95.162,179.522 95.700,180.063 96.175 C 180.605 96.650,181.172 97.091,181.324 97.154 C 182.892 97.802,185.168 103.102,185.168 106.106 C 185.168 109.363,186.069 110.520,187.678 109.330 C 188.133 108.993,189.248 108.498,190.156 108.228 C 191.063 107.959,191.993 107.582,192.222 107.392 C 193.407 106.409,203.078 106.546,204.092 107.560 C 204.319 107.787,205.222 108.145,206.100 108.355 C 206.977 108.566,208.030 109.073,208.439 109.482 C 210.317 111.360,212.334 109.915,212.334 106.691 C 212.334 103.985,213.015 100.520,213.703 99.722 C 218.630 94.015,216.778 94.299,249.031 94.309 C 277.055 94.318,279.100 94.438,280.297 96.148 C 280.548 96.506,280.921 96.801,281.126 96.803 C 281.588 96.807,283.528 98.771,283.528 99.235 C 283.528 99.422,283.797 99.762,284.124 99.992 C 285.312 100.823,285.402 103.018,285.400 130.971 C 285.398 158.803,285.301 161.248,284.161 162.021 C 283.813 162.257,283.528 162.670,283.528 162.940 C 283.528 163.481,281.180 165.808,280.634 165.808 C 280.445 165.808,279.982 166.097,279.606 166.451 C 278.423 167.562,275.731 167.669,248.868 167.669 C 221.711 167.669,218.829 167.553,218.040 166.426 C 217.802 166.086,217.418 165.808,217.188 165.808 C 216.729 165.808,214.520 163.724,214.520 163.291 C 214.520 163.143,214.243 162.764,213.904 162.449 C 212.551 161.188,212.334 158.430,212.334 142.520 C 212.334 125.132,212.313 124.971,209.748 122.405 C 208.900 121.557,207.905 120.771,207.538 120.658 C 207.170 120.546,206.624 120.196,206.324 119.882 C 206.025 119.568,205.252 119.212,204.607 119.091 C 203.962 118.971,203.290 118.675,203.114 118.435 C 202.279 117.297,196.995 117.322,194.423 118.476 C 193.884 118.718,192.933 119.074,192.309 119.267 C 191.686 119.460,190.927 119.893,190.622 120.230 C 190.317 120.567,189.932 120.843,189.768 120.843 C 188.988 120.843,185.793 124.068,185.490 125.161 C 185.293 125.870,185.171 132.291,185.170 141.992 L 185.168 157.676 184.384 160.012 C 183.952 161.297,183.250 162.726,182.822 163.187 C 182.395 163.648,182.045 164.136,182.045 164.270 C 182.045 165.182,178.306 167.282,175.793 167.781 C 171.905 168.553,123.815 168.578,120.018 167.810 C 116.766 167.152,114.960 165.935,112.516 162.750 C 109.586 158.932,109.438 102.800,112.350 99.499 C 114.267 97.326,116.714 95.236,117.546 95.061 C 118.071 94.950,118.923 94.677,119.438 94.453 C 119.953 94.228,120.585 93.973,120.843 93.886 C 122.173 93.433,174.414 93.711,175.644 94.178 M190.632 181.438 C 189.945 181.601,187.697 182.001,185.636 182.328 C 183.575 182.655,181.468 183.092,180.952 183.301 C 180.437 183.509,179.102 183.933,177.986 184.242 C 174.410 185.234,170.118 186.903,168.306 188.006 C 168.048 188.163,167.135 188.652,166.276 189.092 C 162.345 191.108,160.878 192.023,157.069 194.838 C 153.987 197.116,154.233 196.897,149.464 201.590 C 147.178 203.839,144.584 206.649,143.698 207.835 C 142.812 209.022,141.868 210.273,141.601 210.617 C 137.444 215.964,133.213 225.028,134.542 225.739 C 135.226 226.106,165.809 226.124,227.010 225.794 L 262.139 225.605 262.242 224.700 C 262.367 223.605,259.397 217.582,256.735 213.533 C 249.993 203.279,242.042 195.920,231.006 189.719 C 228.997 188.590,227.189 187.666,226.989 187.666 C 226.790 187.666,226.116 187.384,225.491 187.040 C 223.104 185.725,216.758 183.802,211.397 182.769 C 209.251 182.355,206.862 181.863,206.089 181.676 C 204.276 181.236,192.265 181.052,190.632 181.438 M202.498 182.823 C 205.246 183.078,208.199 183.289,209.060 183.291 C 210.006 183.293,211.073 183.534,211.753 183.899 C 212.374 184.231,214.049 184.663,215.476 184.858 C 217.084 185.078,218.351 185.434,218.809 185.795 C 219.216 186.114,220.306 186.471,221.232 186.586 C 222.259 186.715,223.119 187.022,223.437 187.374 C 223.725 187.691,224.580 188.044,225.337 188.157 C 226.173 188.283,226.831 188.580,227.009 188.912 C 227.170 189.213,227.913 189.614,228.660 189.802 C 229.407 189.990,230.274 190.427,230.587 190.772 C 230.899 191.118,231.618 191.488,232.184 191.594 C 232.749 191.700,233.290 191.990,233.385 192.238 C 233.481 192.487,234.053 192.896,234.656 193.149 C 235.260 193.401,235.753 193.730,235.753 193.880 C 235.753 194.029,236.280 194.400,236.924 194.702 C 238.057 195.234,238.412 195.507,240.161 197.186 C 240.610 197.617,241.108 197.970,241.267 197.970 C 242.050 197.970,251.500 207.782,252.018 209.133 C 252.166 209.520,252.492 209.836,252.743 209.836 C 252.993 209.836,253.296 210.152,253.417 210.539 C 253.537 210.925,254.039 211.703,254.531 212.267 C 255.023 212.831,255.425 213.494,255.425 213.739 C 255.425 213.985,255.690 214.327,256.014 214.501 C 256.338 214.674,256.698 215.196,256.815 215.662 C 256.932 216.127,257.369 216.914,257.788 217.411 C 258.206 217.908,258.548 218.537,258.548 218.808 C 258.548 219.079,258.872 219.736,259.268 220.267 C 260.159 221.464,260.893 223.853,260.493 224.253 C 260.206 224.541,252.555 224.605,173.849 224.978 L 135.207 225.162 135.207 224.246 C 135.207 223.735,135.407 223.253,135.658 223.157 C 135.906 223.062,136.281 222.379,136.491 221.640 C 136.702 220.901,137.121 220.016,137.423 219.672 C 137.724 219.329,138.070 218.626,138.191 218.111 C 138.312 217.596,138.665 216.893,138.974 216.550 C 139.284 216.206,139.690 215.574,139.878 215.144 C 140.344 214.076,141.836 211.942,143.666 209.724 C 144.112 209.185,144.605 208.504,144.764 208.211 C 145.707 206.468,152.414 199.788,155.672 197.346 C 156.474 196.745,157.448 195.937,157.836 195.550 C 158.224 195.164,158.701 194.848,158.896 194.848 C 159.091 194.848,159.526 194.573,159.862 194.236 C 160.198 193.900,161.042 193.335,161.736 192.981 C 162.430 192.627,162.998 192.210,162.998 192.055 C 162.998 191.900,163.481 191.614,164.071 191.419 C 164.661 191.225,165.469 190.815,165.867 190.508 C 166.264 190.202,167.071 189.787,167.661 189.585 C 168.251 189.384,168.954 189.028,169.223 188.794 C 169.491 188.561,170.273 188.193,170.960 187.978 C 171.647 187.763,172.420 187.414,172.678 187.202 C 172.935 186.990,173.841 186.648,174.690 186.441 C 175.539 186.234,176.803 185.809,177.500 185.495 C 178.197 185.182,179.399 184.831,180.172 184.717 C 180.945 184.603,182.350 184.237,183.294 183.905 C 184.880 183.347,191.965 182.504,195.941 182.401 C 196.799 182.378,199.750 182.569,202.498 182.823 " stroke="none" fill="#a6d0d3" fill-rule="evenodd"></path></g></svg>